<?xml version="1.0" encoding="utf-8"?>
<!-- Generator: Adobe Illustrator 19.0.1, SVG Export Plug-In . SVG Version: 6.00 Build 0)  -->
<svg version="1.1" xmlns="http://www.w3.org/2000/svg" xmlns:xlink="http://www.w3.org/1999/xlink" x="0px" y="0px"
	 viewBox="0 0 1920 1080" style="enable-background:new 0 0 1920 1080;" xml:space="preserve">
<style type="text/css">
	.st0{fill:#333745;stroke:#000000;stroke-miterlimit:10;}
	.st1{fill:#EA2E49;}
	.st2{fill:#DAEDE2;}
	.st3{font-family:'MyriadPro-Regular';}
	.st4{font-size:311.3835px;}
	.st5{display:none;}
	.st6{display:inline;}
	.st7{fill:#FFFFA6;}
	.st8{font-family:'ModernSans';}
	.st9{font-size:100px;}
	.st10{letter-spacing:-31,1;}
</style>
<g id="Lager_1">
	<rect x="550.7" y="155.7" class="st0" width="759.3" height="759.3"/>
</g>
<g id="Lager_3">
	<path id="path4" class="st1" d="M930.3,477.4c-11.9-19.8-31.7-33.7-55.5-33.7c-33.7,0-59.5,33.1-59.5,59.5
		c0,51.3,35.7,75.4,115.1,150.8c79.3-75.4,115.1-99.5,115.1-150.8c0-26.4-25.8-59.5-59.5-59.5C962.1,443.7,942.2,457.6,930.3,477.4z
		"/>
	<text transform="matrix(1 0 0 1 16384 861.8447)" class="st8" style="font-size:600px;">d</text>
</g>
<g id="_x29_">
	<text transform="matrix(1 0 0 1 1058.9581 638.0047)" class="st2 st3 st4">}</text>
</g>
<g id="_x28_">
	<text transform="matrix(-1 -1.137036e-003 1.137036e-003 -1 799.5883 455.7109)" class="st2 st3 st4">}</text>
</g>
<g id="Lager_2" class="st5">
	<text transform="matrix(0.9971 0 0 1 570.4487 476.5103)" class="st6"><tspan x="0" y="0" class="st7 st8 st9">JUST </tspan><tspan x="295.2" y="0" class="st7 st8 st9 st10">	</tspan><tspan x="0" y="120" class="st7 st8 st9">DEVELOPMENT</tspan></text>
</g>
</svg>
